<svg width="15.855" height="15.446" viewBox="0 0 15.855 15.446"><path d="M7.736 2.947a2.78 2.78 0 00-.143.005c-.835.044-2.029.185-2.668.798-.24.23-.195.48-.201.774-.009.39.019.902-.273 1.203-.226.225-.605.28-.902.36-.159.043-.317.093-.472.149-1.61.59-2.607 1.687-2.951 3.37a6.206 6.206 0 00-.114 1.62c.105 1.679.822 3.28 2.473 3.938.715.285 1.219.275 1.975.275H8.28l2.423-.001c1.167 0 2.071.112 3.12-.49 1.516-.868 2.014-2.492 2.032-4.138.024-2.303-1.24-4.123-3.493-4.708-1.034-.27-1.232-.378-1.227-1.523.001-.337.037-.63-.244-.878-.738-.65-2.24-.768-3.155-.754zm-.112.415c.778-.05 2.274.084 2.931.595.077.06.158.17.16.27a.32.32 0 01-.098.228c-.518.475-1.74.632-2.392.648-.912.028-2.081-.063-2.879-.56-.172-.108-.29-.359-.118-.515.57-.513 1.673-.627 2.396-.666zm.594.259a6.084 6.084 0 00-.556.003c-.506.025-1.48.095-1.892.455a.22.22 0 00-.066.153c0 .068.052.146.104.186.516.396 1.824.459 2.423.423.497-.015 1.466-.1 1.867-.458a.21.21 0 00.067-.153.287.287 0 00-.107-.185c-.392-.289-1.203-.4-1.84-.424zm2.356 1.365c.011.017.047.325.052.358.16 1.083 1.08 1.123 1.926 1.403.571.189 1.134.523 1.581.952.834.801 1.162 1.997 1.163 3.128.008 1.786-.78 3.602-2.69 3.983-.463.092-.866.073-1.335.072H4.775c-.323 0-.652.01-.974-.005-2.384-.12-3.356-2.259-3.229-4.39.112-1.874 1.043-3.182 2.845-3.777.475-.157 1.019-.205 1.402-.554.342-.313.432-.726.456-1.169.224.108.415.196.654.267 1.345.398 3.392.396 4.645-.268z"/><path d="M8.097 10.703c.151-.052.306-.141.422-.251.206-.195.41-.46.714-.507.471-.073.704.502 1.007.712.651.453 1.068-.65 1.636-.713.538-.059.714.445 1.055.7.55.41 1.021-.319 1.417-.578a.864.864 0 01.386-.132c.013.134.025.267.036.401.025.328.021.658-.012.985-.165 1.631-.994 3.007-2.817 3.052-.374.009-.752.001-1.127.001h-6.44c-.236 0-.473.005-.706-.019-.712-.073-1.385-.389-1.83-.97-.548-.718-.767-1.719-.773-2.609-.002-.28.026-.565.056-.839.629.064.776.601 1.346.796.592.202.817-.505 1.25-.714.72-.348 1.036.532 1.623.72.561.182.797-.538 1.224-.733.483-.22.805.165 1.121.463.107.1.271.188.412.235zM7.427.015c.581-.031 1.179-.007 1.76.018.417.018 1.964.045 2.203.32.177.204.172.772.156 1.032-.038.656-.945.267-1.148.5-.102.116-.08.61-.085.778a8.713 8.713 0 00-1.705-.236c-1.068-.05-1.85.01-2.889.201-.018-.113-.034-.695-.093-.735-.268-.183-.792-.011-1.074-.23-.08-.061-.096-.188-.102-.282C4.428.213 4.59.205 5.687.11c.579-.052 1.16-.083 1.74-.095z"/></svg>