<svg width="14" height="18" viewBox="0 0 14 18"><g><path d="M2.1 10.85c.2.98.68 1.89 1.39 2.61l.01.01c.99.99 2.3 1.49 3.6 1.49h.01c1.3 0 2.6-.5 3.59-1.5.73-.73 1.19-1.66 1.39-2.61z" opacity=".75"/><path d="M2 9.85c0 .34.04.68.1 1.01h9.99c.07-.34.11-.67.11-1.01 0-1.13-.4-2.21-1.08-3.09H3.08C2.38 7.67 2 8.77 2 9.85z" opacity=".5"/><path d="M3.08 6.75h8.03c-.13-.17-.26-.35-.41-.5l-3.6-3.6-3.61 3.6c-.15.16-.27.33-.41.5z" opacity=".25"/></g><path d="M10.71 6.25a5.12 5.12 0 011.49 3.6c0 1.27-.5 2.62-1.49 3.61-1.99 1.99-5.21 2-7.2.01l-.01-.01A5.11 5.11 0 012 9.85c0-1.27.5-2.6 1.49-3.6l3.61-3.6z" stroke="#0078a8" stroke-width=".1"/><path d="M10.71 6.25a5.12 5.12 0 011.49 3.6c0 1.27-.5 2.62-1.49 3.61-1.99 1.99-5.21 2-7.2.01l-.01-.01A5.11 5.11 0 012 9.85c0-1.27.5-2.6 1.49-3.6l3.61-3.6z" stroke="#0078a8" stroke-width="1.7"/></svg>