<?xml version="1.0" encoding="UTF-8" standalone="no"?>
<svg
   enable-background="new 0 0 18 18"
   width="15.855086"
   height="15.446149"
   viewBox="0 0 15.855086 15.446149"
   version="1.1"
   id="svg7"
   xmlns="http://www.w3.org/2000/svg"
   xmlns:svg="http://www.w3.org/2000/svg">
  <defs
     id="defs7" />
  <clipPath
     id="colours_cercle_clip">
    <circle
       cx="9"
       cy="9"
       r="9"
       id="circle1" />
  </clipPath>
  <path
     id="path2"
     style="stroke-width:1"
     d="m 7.7362548,2.946983 c -0.047907,6.438e-4 -0.095882,0.00228 -0.1436821,0.0054 C 6.7575452,2.996143 5.5644745,3.1367056 4.9250248,3.7498073 4.6850252,3.9799194 4.7301919,4.2295418 4.7238698,4.5238945 4.7154926,4.9144225 4.7425416,5.4260278 4.4508739,5.7267832 4.2246469,5.9524445 3.8455341,6.0078584 3.5492687,6.0864374 3.3900321,6.1301881 3.2324582,6.1800004 3.0769136,6.2355078 1.4670281,6.8261263 0.47037305,7.9234052 0.12559325,9.605303 c -0.10904,0.533071 -0.1471542,1.078275 -0.1140475,1.621361 0.1055774,1.678307 0.8227755,3.279008 2.47357715,3.936892 0.7152794,0.285036 1.2188505,0.275133 1.974731,0.27524 l 1.0843509,-4.5e-4 h 2.736246 l 2.4223892,-4.49e-4 c 1.167025,-2e-5 2.071127,0.112243 3.121045,-0.490764 1.515458,-0.867631 2.013523,-2.490879 2.030858,-4.137145 C 15.879016,8.5071167 14.614453,6.6873473 12.362369,6.1017036 11.32828,5.8327951 11.130417,5.7240932 11.134785,4.5786733 11.136038,4.2418273 11.171577,3.9486202 10.891424,3.7013145 10.15284,3.050276 8.6502821,2.9329601 7.7362548,2.946983 Z M 7.6244525,3.3618652 c 0.7778191,-0.050176 2.2737915,0.084079 2.9306665,0.5953827 0.07666,0.059663 0.157734,0.1705613 0.160293,0.2703021 0.0019,0.08116 -0.03992,0.1735589 -0.09834,0.2271972 C 10.099478,4.9301303 8.877828,5.086939 8.2247739,5.1026636 7.3133926,5.130501 6.1440399,5.0399814 5.3461929,4.5423033 5.1740846,4.4349625 5.0551361,4.1842159 5.2281041,4.0281909 5.7975611,3.5145353 6.9009012,3.4007238 7.6244525,3.3618652 Z M 8.2184885,3.620942 C 8.0063955,3.613212 7.8134555,3.615302 7.6621693,3.624082 7.1559692,3.648665 6.181345,3.718884 5.7700555,4.0789257 c -0.038735,0.033885 -0.066694,0.099946 -0.066003,0.1526622 8.275e-4,0.068606 0.051748,0.146093 0.1041695,0.1863379 0.5158814,0.3960038 1.8233121,0.459073 2.4223906,0.4229638 0.4975928,-0.014907 1.4663244,-0.099498 1.8669684,-0.4579865 0.0403,-0.036047 0.0692,-0.097834 0.06734,-0.1531113 -0.0022,-0.064262 -0.05777,-0.1484532 -0.106867,-0.1845417 C 9.665554,3.7564827 8.8547641,3.6441262 8.2184885,3.620942 Z m 2.3550385,1.365429 c 0.01179,0.016851 0.04715,0.324238 0.05209,0.357409 0.160938,1.0834252 1.080702,1.1232989 1.926689,1.4031458 0.570946,0.1888395 1.134079,0.5231241 1.580951,0.9523428 0.833854,0.8008914 1.162089,1.9966054 1.162927,3.1273314 0.008,1.786378 -0.780209,3.601939 -2.690896,3.983585 -0.461885,0.09227 -0.865732,0.07261 -1.333998,0.0723 H 9.868587 4.7746076 c -0.3226963,4.54e-4 -0.6521025,0.01036 -0.9738952,-0.0058 C 1.4168057,14.756576 0.44500905,12.618111 0.57235495,10.4876 0.68439945,8.6131089 1.6146657,7.3048746 3.4168116,6.7096583 3.8921328,6.5526677 4.435966,6.5053485 4.8190591,6.1560331 5.160942,5.8426382 5.2512537,5.4304672 5.2752497,4.9872688 5.4990008,5.0950719 5.6898503,5.1830204 5.9294523,5.2539788 7.2744617,5.6523368 9.321079,5.6496489 10.573527,4.986371 Z" />
  <path
     d="M 8.0969035,10.703021 C 8.248018,10.651311 8.4025739,10.561544 8.5187748,10.451745 8.7248495,10.25705 8.928216,9.992781 9.233421,9.945145 c 0.471018,-0.07355 0.704027,0.501982 1.006087,0.711773 0.651981,0.452815 1.068623,-0.65047 1.636107,-0.712799 0.537986,-0.05908 0.71406,0.444898 1.055798,0.699951 0.548713,0.409525 1.020948,-0.318664 1.416596,-0.577811 0.128252,-0.08403 0.237104,-0.109862 0.386118,-0.132134 0.01278,0.133602 0.02491,0.267251 0.03636,0.40098 0.0245,0.328049 0.02047,0.65761 -0.01207,0.984965 -0.165641,1.631362 -0.994833,3.0074 -2.816923,3.051487 -0.374804,0.009 -0.752125,0.0016 -1.127115,0.0016 l -2.6047602,-1.46e-4 -2.9336068,1.46e-4 -0.901765,2.3e-4 c -0.2358019,0 -0.4732842,0.005 -0.7057895,-0.01903 C 2.956351,14.28086 2.2827233,13.965031 1.8383478,13.38386 1.2895076,12.666082 1.0714464,11.665268 1.0653151,10.775405 c -0.00183,-0.280645 0.02616,-0.564943 0.055762,-0.839352 0.6286793,0.06388 0.7763707,0.601429 1.3459955,0.795916 0.591814,0.202043 0.8169305,-0.505298 1.2498643,-0.714355 0.7199598,-0.347657 1.0359364,0.532274 1.6234261,0.719498 0.5607647,0.182455 0.7962102,-0.537273 1.2237072,-0.732473 0.4824569,-0.220267 0.8049415,0.16499 1.1214032,0.46306 0.1067733,0.100579 0.2709452,0.188462 0.4114341,0.23536 z"
     id="path4-5"
     style="stroke-width:1" />
  <path
     d="m 7.4271351,0.01470622 c 0.5808324,-0.031156 1.1787508,-0.00688 1.7598009,0.018127 0.417013,0.017952 1.963814,0.045417 2.202642,0.3199441 0.17787,0.204424 0.172012,0.77173648 0.156791,1.03243368 -0.03827,0.6562507 -0.945749,0.266901 -1.148716,0.4988565 -0.102037,0.1165992 -0.07935,0.6113729 -0.08491,0.7786722 C 9.753652,2.5281993 9.182632,2.4493257 8.6079759,2.4273011 7.5399973,2.376091 6.7579433,2.4376281 5.7194617,2.6284326 5.7009187,2.5153489 5.6852893,1.9334109 5.6255885,1.8926465 5.357741,1.7096164 4.8337227,1.8815559 4.5515691,1.6634111 4.4717181,1.6016617 4.4556057,1.4750959 4.4500051,1.3811598 4.4283102,0.21250812 4.5893248,0.20507122 5.6869564,0.10986662 6.2657613,0.05840722 6.8461502,0.02666092 7.4271351,0.01469732 Z"
     id="path9"
     style="stroke-width:1" />
</svg>
